<?xml version="1.0" encoding="utf-8"?>
<!-- Generator: Adobe Illustrator 25.3.0, SVG Export Plug-In . SVG Version: 6.00 Build 0)  -->
<svg version="1.1" id="Layer_1" xmlns="http://www.w3.org/2000/svg" xmlns:xlink="http://www.w3.org/1999/xlink" x="0px" y="0px"
	 viewBox="0 0 293.7 81" style="enable-background:new 0 0 293.7 81;" xml:space="preserve">
<style type="text/css">
	.st0{fill:#FFFFFF;}
</style>
<g>
	<path class="st0" d="M293.2,32.3h-20.4v20.1c-3.1-0.7-5.4-3.4-5.4-6.6V34c0-3.7,3.1-6.8,7-6.8h12.1
		C289.7,27.2,292.5,29.4,293.2,32.3z"/>
	<path class="st0" d="M260.7,52.4V32.5h-20.6c0.7-3,3.5-5.3,6.8-5.3H259c3.8,0,7,3.1,7,6.8v11.8C265.9,48.9,263.7,51.6,260.7,52.4z"
		/>
	<path class="st0" d="M293.2,20.6h-20.4V0.5c-3.1,0.7-5.4,3.4-5.4,6.6v11.8c0,3.7,3.1,6.8,7,6.8h12.1
		C289.7,25.7,292.5,23.6,293.2,20.6z"/>
	<path class="st0" d="M260.7,0.5v19.9h-20.6c0.7,3,3.5,5.3,6.8,5.3H259c3.8,0,7-3.1,7-6.8V7.1C265.9,4,263.7,1.3,260.7,0.5z"/>
</g>
</svg>
