<svg xmlns="http://www.w3.org/2000/svg" xml:space="preserve" id="Layer_1" width="215.3" height="25.2" x="0" y="0" version="1.1">
  <style id="style1">
    .st0{fill:#00b0cc}
  </style>
  <path id="path3" d="M18.3 2.8 4.7 21.9h13.8v3H0v-1.4c0-.4.1-.7.3-1.1L13.9 3.2H.6v-3h18.1v1.4c0 .5-.1.9-.4 1.2zm20-2.4L34.7.3l-9.8 24.5-.1.2h2.8c.3 0 .6-.1.8-.3.2-.2.4-.4.4-.6l2.2-5.8h10.7l2.2 5.8c.1.2.3.5.4.6.2.2.5.2.8.2h2.8zm-6.2 15.2 3.7-9.7c.1-.3.2-.7.4-1 .1-.2.1-.5.2-.8.2.7.4 1.3.6 1.8l3.7 9.7zM75.9.3V25h-1.8c-.3 0-.5 0-.7-.2-.2-.1-.4-.3-.6-.5L59 6.3v18.6h-3.2V.3h1.9c.3 0 .6 0 .7.1.2.1.3.2.5.5l13.8 18V.3Zm29.9 7.3c-.6-1.5-1.4-2.8-2.5-3.9s-2.4-1.9-3.8-2.5c-1.5-.6-3.2-.9-5-.9h-9.3V25h9.3c1.8 0 3.5-.3 5-.9 1.5-.6 2.8-1.4 3.8-2.5 1.1-1.1 1.9-2.4 2.5-3.9.6-1.5.9-3.2.9-5-.1-1.9-.4-3.6-.9-5.1zM94.5 22h-5.7V3.2h5.7c1.3 0 2.5.2 3.5.6 1 .4 1.9 1 2.7 1.8.7.8 1.3 1.8 1.7 2.9.4 1.2.6 2.5.6 4s-.2 2.8-.6 4c-.4 1.2-1 2.2-1.7 2.9-.7.8-1.6 1.4-2.7 1.8-1.1.6-2.2.8-3.5.8zM125.2.4l-3.6-.1-9.8 24.5-.1.2h2.8c.3 0 .6-.1.8-.3.2-.2.4-.4.4-.6l2.2-5.8h10.7l2.2 5.8c.1.2.2.5.4.6.2.2.5.2.8.2h2.8zm-6.1 15.2 3.7-9.7c.1-.3.2-.7.4-1 .1-.2.1-.5.2-.8.2.7.4 1.3.6 1.8l3.7 9.7zm46.5 2.6c0 1-.2 2-.6 2.8-.4.9-1 1.6-1.7 2.2-.7.6-1.5 1.1-2.5 1.5-.9.3-2 .5-3.1.5-1.4 0-2.6-.2-3.5-.6-.9-.4-1.7-.9-2.3-1.5-.6-.6-1.1-1.3-1.4-2-.3-.7-.6-1.5-.8-2.2v-.1l.8-.3c.3-.1.6-.1.9 0 .2.1.3.2.3.4l.1.3c.1.2.2.5.3.8.1.3.3.6.5.9.2.3.4.6.7.9.3.3.6.6 1.1.8.4.2.9.4 1.5.6.6.2 1.2.2 2 .2 1 0 1.9-.2 2.6-.5.7-.3 1.4-.8 1.9-1.3s.9-1.1 1.1-1.7c.2-.6.4-1.3.4-1.8 0-.7-.1-1.4-.3-2-.2-.6-.6-1.1-1.1-1.6-.5-.4-1.2-.8-2.1-1.1-.9-.3-2-.4-3.2-.4h-.2v-1.5h.1c1 0 1.9-.2 2.7-.4.8-.2 1.4-.6 1.9-1s.9-.9 1.2-1.5c.3-.6.4-1.3.4-2 0-.8-.1-1.5-.4-2.2-.3-.6-.6-1.1-1.1-1.5-.5-.4-1-.7-1.6-.9-.6-.2-1.3-.3-2-.3s-1.4.1-2 .3c-.6.2-1.2.5-1.6.9-.5.4-.9.9-1.2 1.4-.3.6-.6 1.2-.7 1.9-.2.8-.8.8-1 .7l-1-.2v-.1c.2-1 .4-2 .9-2.8.4-.8 1-1.5 1.6-2.1.7-.6 1.4-1 2.3-1.3.9-.3 1.8-.4 2.8-.4.9 0 1.8.1 2.6.4.8.3 1.6.7 2.2 1.2.6.5 1.1 1.2 1.5 2 .4.8.6 1.7.6 2.7 0 .8-.1 1.5-.4 2.2-.2.6-.6 1.2-1 1.7s-1 .9-1.5 1.2c-.4.2-.9.4-1.3.6 1.5.4 2.7 1 3.5 2 .6 1.3 1.1 2.6 1.1 4.2zm23.6-3.7c-.4-.9-.9-1.7-1.5-2.3-.7-.6-1.4-1.1-2.3-1.5-.9-.4-1.9-.5-2.9-.5-1.1 0-2.1.2-3.1.6-.6.2-1.1.6-1.6.9.1-.1.1-.2.2-.3.3-.4.6-.8 1-1.3l7.4-9.6h-1.7c-.4 0-.8.2-1 .4l-6.6 8.8c-1.1 1.5-1.9 2.8-2.4 4-.5 1.2-.7 2.3-.7 3.3 0 1.2.2 2.4.5 3.4.4 1 .9 1.9 1.6 2.5.7.7 1.5 1.2 2.4 1.6.9.4 2 .5 3.1.5 1.2 0 2.3-.2 3.3-.6 1-.4 1.8-.9 2.6-1.6.7-.7 1.3-1.5 1.7-2.4.4-.9.6-2 .6-3.1 0-.9-.2-1.9-.6-2.8zm-7.5 9.1c-.9 0-1.7-.2-2.4-.4-.7-.3-1.3-.7-1.8-1.3-.5-.5-.9-1.2-1.1-1.9-.3-.7-.4-1.5-.4-2.4 0-.7.1-1.4.4-2.1.3-.7.7-1.3 1.2-1.8s1.2-1 2-1.3c.8-.3 1.6-.5 2.6-.5.9 0 1.7.1 2.4.4.7.3 1.3.7 1.8 1.2s.9 1.1 1.2 1.8c.3.7.4 1.5.4 2.4 0 .9-.1 1.6-.4 2.4-.3.7-.7 1.3-1.2 1.9-.5.5-1.2.9-1.9 1.2-1 .2-1.9.4-2.8.4zm32.9-16.4c-.4-1.5-1.1-2.9-1.9-3.9-.8-1-1.7-1.8-2.8-2.3-1.1-.5-2.2-.8-3.4-.8-1.2 0-2.4.3-3.4.8-1.1.5-2 1.3-2.8 2.3-.8 1-1.4 2.3-1.9 3.9-.4 1.5-.7 3.4-.7 5.5s.2 4 .7 5.5c.4 1.5 1.1 2.9 1.9 3.9.8 1 1.7 1.8 2.8 2.3 1.1.5 2.2.8 3.4.8 1.2 0 2.4-.3 3.4-.8 1.1-.5 2-1.3 2.8-2.3.8-1 1.4-2.3 1.9-3.9.5-1.5.7-3.4.7-5.5s-.2-3.9-.7-5.5zm-10.7 15.7c-.8-.4-1.5-1-2.2-1.9-.6-.9-1.1-2-1.5-3.3-.4-1.4-.6-3-.6-5 0-1.9.2-3.6.6-5 .4-1.4.9-2.5 1.5-3.3.6-.9 1.3-1.5 2.2-1.9.8-.4 1.7-.6 2.6-.6.9 0 1.8.2 2.6.6.8.4 1.5 1 2.2 1.9.6.9 1.1 2 1.5 3.3.4 1.4.6 3 .6 5 0 1.9-.2 3.6-.6 5-.4 1.3-.9 2.5-1.5 3.3-.6.9-1.3 1.5-2.2 1.9-1.7.8-3.6.8-5.2 0z" style="fill:#fff"/>
</svg>
