<?xml version="1.0" encoding="utf-8"?>
<!-- Generator: Adobe Illustrator 28.3.0, SVG Export Plug-In . SVG Version: 6.00 Build 0)  -->
<svg version="1.1" id="Layer_1" xmlns="http://www.w3.org/2000/svg" xmlns:xlink="http://www.w3.org/1999/xlink" x="0px" y="0px"
	 viewBox="0 0 317.1 84.9" style="enable-background:new 0 0 317.1 84.9;" xml:space="preserve">
<style type="text/css">
	.st0{fill:#00B0CC;}
	.st1{fill:#1C242B;}
</style>
<g>
	<g>
		<g>
			<path class="st0" d="M42.3,83C23,83,7.4,67.3,7.4,48.1S23,13.2,42.3,13.2c19.2,0,34.9,15.6,34.9,34.9S61.5,83,42.3,83z
				 M42.3,23.9C28.9,23.9,18,34.7,18,48.1s10.9,24.2,24.2,24.2s24.2-10.9,24.2-24.2S55.6,23.9,42.3,23.9z"/>
		</g>
		<g>
			<path class="st0" d="M77.4,24.3c-6.2,0-11.3-5.1-11.3-11.3S71.2,1.6,77.4,1.6s11.3,5.1,11.3,11.3S83.7,24.3,77.4,24.3z M77.4,6.3
				c-3.6,0-6.6,3-6.6,6.6s3,6.6,6.6,6.6s6.6-3,6.6-6.6S81.1,6.3,77.4,6.3z"/>
		</g>
	</g>
	<g>
		<g>
			<g>
				<path class="st1" d="M118.9,38.3l-13.6,19.1h13.8v3h-18.5V59c0-0.4,0.1-0.7,0.3-1.1l13.6-19.2h-13.3v-3h18.1v1.4
					C119.3,37.6,119.2,38,118.9,38.3z"/>
			</g>
		</g>
		<g>
			<g>
				<path class="st1" d="M138.9,35.9L138.9,35.9l-3.6-0.1l-9.8,24.5l-0.1,0.2h2.8c0.3,0,0.6-0.1,0.8-0.3c0.2-0.2,0.4-0.4,0.4-0.6
					l2.2-5.8h10.7l2.2,5.8c0.1,0.2,0.3,0.5,0.4,0.6c0.2,0.2,0.5,0.2,0.8,0.2h2.8L138.9,35.9z M132.7,51.1l3.7-9.7
					c0.1-0.3,0.2-0.7,0.4-1c0.1-0.2,0.1-0.5,0.2-0.8c0.2,0.7,0.4,1.3,0.6,1.8l3.7,9.7H132.7z"/>
			</g>
		</g>
		<g>
			<path class="st1" d="M176.5,35.8v24.7h-1.8c-0.3,0-0.5,0-0.7-0.2c-0.2-0.1-0.4-0.3-0.6-0.5l-13.8-18c0,0.1,0,0.2,0,0.4
				c0,0.3,0,0.5,0,0.7v17.5h-3.2V35.8h1.9c0.3,0,0.6,0,0.7,0.1c0.2,0.1,0.3,0.2,0.5,0.5l13.8,18c0-0.1,0-0.2,0-0.4
				c0-0.3,0-0.5,0-0.8V35.8H176.5z"/>
		</g>
		<g>
			<path class="st1" d="M206.4,43.1c-0.6-1.5-1.4-2.8-2.5-3.9c-1.1-1.1-2.4-1.9-3.8-2.5c-1.5-0.6-3.2-0.9-5-0.9h-9.3v24.7h9.3
				c1.8,0,3.5-0.3,5-0.9c1.5-0.6,2.8-1.4,3.8-2.5c1.1-1.1,1.9-2.4,2.5-3.9c0.6-1.5,0.9-3.2,0.9-5C207.2,46.3,206.9,44.6,206.4,43.1z
				 M195.1,57.5h-5.7V38.7h5.7c1.3,0,2.5,0.2,3.5,0.6c1,0.4,1.9,1,2.7,1.8c0.7,0.8,1.3,1.8,1.7,2.9c0.4,1.2,0.6,2.5,0.6,4
				c0,1.5-0.2,2.8-0.6,4c-0.4,1.2-1,2.2-1.7,2.9c-0.7,0.8-1.6,1.4-2.7,1.8C197.5,57.3,196.4,57.5,195.1,57.5z"/>
		</g>
		<g>
			<path class="st1" d="M225.8,35.9L225.8,35.9l-3.6-0.1l-9.8,24.5l-0.1,0.2h2.8c0.3,0,0.6-0.1,0.8-0.3c0.2-0.2,0.4-0.4,0.4-0.6
				l2.2-5.8h10.7l2.2,5.8c0.1,0.2,0.2,0.5,0.4,0.6c0.2,0.2,0.5,0.2,0.8,0.2h2.8L225.8,35.9z M219.7,51.1l3.7-9.7
				c0.1-0.3,0.2-0.7,0.4-1c0.1-0.2,0.1-0.5,0.2-0.8c0.2,0.7,0.4,1.3,0.6,1.8l3.7,9.7H219.7z"/>
		</g>
		<g>
			<g>
				<path class="st1" d="M266.2,53.7c0,1-0.2,2-0.6,2.8c-0.4,0.9-1,1.6-1.7,2.2c-0.7,0.6-1.5,1.1-2.5,1.5c-0.9,0.3-2,0.5-3.1,0.5
					c-1.4,0-2.6-0.2-3.5-0.6c-0.9-0.4-1.7-0.9-2.3-1.5c-0.6-0.6-1.1-1.3-1.4-2c-0.3-0.7-0.6-1.5-0.8-2.2l0-0.1l0.8-0.3
					c0.3-0.1,0.6-0.1,0.9,0c0.2,0.1,0.3,0.2,0.3,0.4l0.1,0.3c0.1,0.2,0.2,0.5,0.3,0.8c0.1,0.3,0.3,0.6,0.5,0.9
					c0.2,0.3,0.4,0.6,0.7,0.9c0.3,0.3,0.6,0.6,1.1,0.8c0.4,0.2,0.9,0.4,1.5,0.6c0.6,0.2,1.2,0.2,2,0.2c1,0,1.9-0.2,2.6-0.5
					c0.7-0.3,1.4-0.8,1.9-1.3c0.5-0.5,0.9-1.1,1.1-1.7c0.2-0.6,0.4-1.3,0.4-1.8c0-0.7-0.1-1.4-0.3-2c-0.2-0.6-0.6-1.1-1.1-1.6
					c-0.5-0.4-1.2-0.8-2.1-1.1c-0.9-0.3-2-0.4-3.2-0.4h-0.2v-1.5h0.1c1,0,1.9-0.2,2.7-0.4c0.8-0.2,1.4-0.6,1.9-1
					c0.5-0.4,0.9-0.9,1.2-1.5c0.3-0.6,0.4-1.3,0.4-2c0-0.8-0.1-1.5-0.4-2.2c-0.3-0.6-0.6-1.1-1.1-1.5c-0.5-0.4-1-0.7-1.6-0.9
					c-0.6-0.2-1.3-0.3-2-0.3c-0.7,0-1.4,0.1-2,0.3c-0.6,0.2-1.2,0.5-1.6,0.9c-0.5,0.4-0.9,0.9-1.2,1.4c-0.3,0.6-0.6,1.2-0.7,1.9
					c-0.2,0.8-0.8,0.8-1,0.7l-1-0.2l0-0.1c0.2-1,0.4-2,0.9-2.8c0.4-0.8,1-1.5,1.6-2.1c0.7-0.6,1.4-1,2.3-1.3
					c0.9-0.3,1.8-0.4,2.8-0.4c0.9,0,1.8,0.1,2.6,0.4c0.8,0.3,1.6,0.7,2.2,1.2c0.6,0.5,1.1,1.2,1.5,2c0.4,0.8,0.6,1.7,0.6,2.7
					c0,0.8-0.1,1.5-0.4,2.2c-0.2,0.6-0.6,1.2-1,1.7c-0.4,0.5-1,0.9-1.5,1.2c-0.4,0.2-0.9,0.4-1.3,0.6c1.5,0.4,2.7,1,3.5,2
					C265.7,50.8,266.2,52.1,266.2,53.7z"/>
			</g>
		</g>
		<g>
			<path class="st1" d="M289.8,50c-0.4-0.9-0.9-1.7-1.5-2.3c-0.7-0.6-1.4-1.1-2.3-1.5c-0.9-0.4-1.9-0.5-2.9-0.5
				c-1.1,0-2.1,0.2-3.1,0.6c-0.6,0.2-1.1,0.6-1.6,0.9c0.1-0.1,0.1-0.2,0.2-0.3c0.3-0.4,0.6-0.8,1-1.3l7.4-9.6h-1.7
				c-0.4,0-0.8,0.2-1,0.4l-6.6,8.8c-1.1,1.5-1.9,2.8-2.4,4c-0.5,1.2-0.7,2.3-0.7,3.3c0,1.2,0.2,2.4,0.5,3.4c0.4,1,0.9,1.9,1.6,2.5
				c0.7,0.7,1.5,1.2,2.4,1.6c0.9,0.4,2,0.5,3.1,0.5c1.2,0,2.3-0.2,3.3-0.6c1-0.4,1.8-0.9,2.6-1.6c0.7-0.7,1.3-1.5,1.7-2.4
				c0.4-0.9,0.6-2,0.6-3.1C290.4,51.9,290.2,50.9,289.8,50z M282.3,59.1c-0.9,0-1.7-0.2-2.4-0.4c-0.7-0.3-1.3-0.7-1.8-1.3
				c-0.5-0.5-0.9-1.2-1.1-1.9c-0.3-0.7-0.4-1.5-0.4-2.4c0-0.7,0.1-1.4,0.4-2.1c0.3-0.7,0.7-1.3,1.2-1.8c0.5-0.5,1.2-1,2-1.3
				c0.8-0.3,1.6-0.5,2.6-0.5c0.9,0,1.7,0.1,2.4,0.4c0.7,0.3,1.3,0.7,1.8,1.2c0.5,0.5,0.9,1.1,1.2,1.8c0.3,0.7,0.4,1.5,0.4,2.4
				c0,0.9-0.1,1.6-0.4,2.4c-0.3,0.7-0.7,1.3-1.2,1.9c-0.5,0.5-1.2,0.9-1.9,1.2C284.1,58.9,283.2,59.1,282.3,59.1z"/>
		</g>
		<g>
			<path class="st1" d="M315.2,42.7c-0.4-1.5-1.1-2.9-1.9-3.9c-0.8-1-1.7-1.8-2.8-2.3c-1.1-0.5-2.2-0.8-3.4-0.8
				c-1.2,0-2.4,0.3-3.4,0.8c-1.1,0.5-2,1.3-2.8,2.3c-0.8,1-1.4,2.3-1.9,3.9c-0.4,1.5-0.7,3.4-0.7,5.5c0,2.1,0.2,4,0.7,5.5
				c0.4,1.5,1.1,2.9,1.9,3.9c0.8,1,1.7,1.8,2.8,2.3c1.1,0.5,2.2,0.8,3.4,0.8c1.2,0,2.4-0.3,3.4-0.8c1.1-0.5,2-1.3,2.8-2.3
				c0.8-1,1.4-2.3,1.9-3.9c0.5-1.5,0.7-3.4,0.7-5.5C315.9,46.1,315.7,44.3,315.2,42.7z M304.5,58.4c-0.8-0.4-1.5-1-2.2-1.9
				c-0.6-0.9-1.1-2-1.5-3.3c-0.4-1.4-0.6-3-0.6-5c0-1.9,0.2-3.6,0.6-5c0.4-1.4,0.9-2.5,1.5-3.3c0.6-0.9,1.3-1.5,2.2-1.9
				c0.8-0.4,1.7-0.6,2.6-0.6s1.8,0.2,2.6,0.6c0.8,0.4,1.5,1,2.2,1.9c0.6,0.9,1.1,2,1.5,3.3c0.4,1.4,0.6,3,0.6,5c0,1.9-0.2,3.6-0.6,5
				c-0.4,1.3-0.9,2.5-1.5,3.3c-0.6,0.9-1.3,1.5-2.2,1.9C308,59.2,306.1,59.2,304.5,58.4z"/>
		</g>
	</g>
</g>
<g>
	<path class="st1" d="M151.7,20.6V9.3h5.3c1.3,0,2.2,0.3,2.9,0.9c0.7,0.6,1,1.5,1,2.5c0,1.1-0.3,1.9-1,2.5c-0.7,0.6-1.6,0.9-2.9,0.9
		h-2.8v4.4H151.7z M154.2,14.3h2.4c0.6,0,1-0.1,1.3-0.4c0.3-0.3,0.4-0.6,0.4-1.1s-0.1-0.8-0.4-1.1c-0.3-0.3-0.7-0.4-1.3-0.4h-2.4
		V14.3z"/>
	<path class="st1" d="M162.8,14.9c0-1.2,0.2-2.2,0.7-3.1s1.1-1.5,1.9-2c0.8-0.5,1.8-0.7,3-0.7c1.1,0,2.1,0.2,3,0.7
		c0.8,0.5,1.5,1.2,1.9,2c0.5,0.9,0.7,1.9,0.7,3c0,1.2-0.2,2.2-0.7,3.1c-0.5,0.9-1.1,1.5-1.9,2c-0.8,0.5-1.8,0.7-3,0.7
		c-1.1,0-2.1-0.2-2.9-0.7c-0.8-0.5-1.5-1.2-1.9-2C163,17.1,162.8,16.1,162.8,14.9z M165.4,14.9c0,1.2,0.2,2.1,0.7,2.7
		c0.5,0.7,1.2,1,2.2,1c1,0,1.7-0.3,2.2-1c0.5-0.7,0.8-1.6,0.8-2.7c0-1.2-0.2-2.1-0.7-2.7s-1.2-1-2.2-1c-1,0-1.7,0.3-2.2,1
		S165.4,13.8,165.4,14.9z"/>
	<path class="st1" d="M179.4,20.6l-4-11.3h2.6l2.9,8.7h-0.7l3.1-8.7h1.8l2.9,8.7h-0.6l3-8.7h2.4l-4,11.3h-2l-2.8-8h0.4l-2.9,8H179.4
		z"/>
	<path class="st1" d="M194.9,20.6V9.3h7.8v1.9h-5.5v2.6h5.1v1.9h-5.1v2.8h5.5v1.9H194.9z"/>
	<path class="st1" d="M205.1,20.6V9.3h5.1c1.3,0,2.2,0.3,2.9,0.9c0.7,0.6,1,1.4,1,2.5c0,0.7-0.2,1.3-0.5,1.8s-0.8,0.9-1.3,1.2
		c-0.6,0.3-1.3,0.4-2.1,0.4l0.2-0.4h0.7c0.5,0,0.9,0.1,1.2,0.4c0.4,0.2,0.7,0.6,0.9,1.1l1.7,3.4h-2.7l-1.7-3.6
		c-0.1-0.3-0.3-0.5-0.6-0.6c-0.3-0.1-0.6-0.2-0.9-0.2h-1.3v4.4H205.1z M207.6,14.4h2.2c0.6,0,1.1-0.1,1.5-0.4
		c0.3-0.3,0.5-0.7,0.5-1.2c0-0.5-0.2-0.9-0.5-1.2c-0.3-0.3-0.8-0.4-1.5-0.4h-2.2V14.4z"/>
	<path class="st1" d="M217.1,20.6V9.3h7.8v1.9h-5.5v2.6h5.1v1.9h-5.1v2.8h5.5v1.9H217.1z"/>
	<path class="st1" d="M227.3,20.6V9.3h4.3c1.3,0,2.4,0.2,3.3,0.7c0.9,0.4,1.6,1.1,2.1,1.9c0.5,0.8,0.7,1.8,0.7,3
		c0,1.2-0.2,2.2-0.7,3c-0.5,0.8-1.1,1.5-2.1,1.9c-0.9,0.5-2,0.7-3.3,0.7H227.3z M229.8,18.5h1.7c1.3,0,2.2-0.3,2.8-0.9
		c0.6-0.6,0.9-1.5,0.9-2.7c0-1.2-0.3-2.1-0.9-2.7c-0.6-0.6-1.5-0.9-2.8-0.9h-1.7V18.5z"/>
	<path class="st1" d="M245.5,20.6V9.3h5.2c1.2,0,2.2,0.3,2.9,0.8c0.7,0.5,1,1.2,1,2.1c0,0.7-0.2,1.2-0.6,1.7
		c-0.4,0.5-0.9,0.8-1.6,0.9v-0.3c0.8,0.1,1.4,0.4,1.9,0.9c0.4,0.5,0.7,1.1,0.7,1.8c0,1-0.4,1.8-1.1,2.3c-0.7,0.6-1.7,0.8-2.9,0.8
		H245.5z M247.9,13.9h2.4c0.7,0,1.1-0.1,1.4-0.4c0.3-0.2,0.5-0.6,0.5-1.1c0-0.5-0.2-0.8-0.5-1c-0.3-0.2-0.8-0.4-1.4-0.4h-2.4V13.9z
		 M247.9,18.7h2.7c0.6,0,1.1-0.1,1.4-0.4c0.3-0.2,0.5-0.6,0.5-1.1c0-0.5-0.2-0.9-0.5-1.1c-0.3-0.2-0.8-0.3-1.4-0.3h-2.7V18.7z"/>
	<path class="st1" d="M259.8,20.6v-5.4l0.5,1.4l-4.9-7.3h2.9l3.1,4.8h-0.5l3.1-4.8h2.8l-4.9,7.3l0.5-1.4v5.4H259.8z"/>
</g>
</svg>
