<svg xmlns="http://www.w3.org/2000/svg" xml:space="preserve" id="Layer_1" x="0" y="0" style="enable-background:new 0 0 317.1 84.9" version="1.1" viewBox="0 0 317.1 84.9">
  <style id="style1" type="text/css">
    .st0{fill:#00b0cc}.st1{fill:#1c242b}
  </style>
  <g id="g16" style="fill:#fff">
    <g id="g3" style="fill:#fff">
      <g id="g1" style="fill:#fff">
        <path id="path1" d="M42.3 83C23 83 7.4 67.3 7.4 48.1S23 13.2 42.3 13.2c19.2 0 34.9 15.6 34.9 34.9S61.5 83 42.3 83zm0-59.1C28.9 23.9 18 34.7 18 48.1s10.9 24.2 24.2 24.2 24.2-10.9 24.2-24.2-10.8-24.2-24.1-24.2z" class="st0" style="fill:#fff"/>
      </g>
      <g id="g2" style="fill:#fff">
        <path id="path2" d="M77.4 24.3c-6.2 0-11.3-5.1-11.3-11.3S71.2 1.6 77.4 1.6s11.3 5.1 11.3 11.3-5 11.4-11.3 11.4zm0-18c-3.6 0-6.6 3-6.6 6.6s3 6.6 6.6 6.6 6.6-3 6.6-6.6-2.9-6.6-6.6-6.6z" class="st0" style="fill:#fff"/>
      </g>
    </g>
    <g id="g15" style="fill:#fff">
      <g id="g5" style="fill:#fff">
        <g id="g4" style="fill:#fff">
          <path id="path3" d="m118.9 38.3-13.6 19.1h13.8v3h-18.5V59c0-.4.1-.7.3-1.1l13.6-19.2h-13.3v-3h18.1v1.4c0 .5-.1.9-.4 1.2z" class="st1" style="fill:#fff"/>
        </g>
      </g>
      <g id="g7" style="fill:#fff">
        <g id="g6" style="fill:#fff">
          <path id="path5" d="m138.9 35.9-3.6-.1-9.8 24.5-.1.2h2.8c.3 0 .6-.1.8-.3.2-.2.4-.4.4-.6l2.2-5.8h10.7l2.2 5.8c.1.2.3.5.4.6.2.2.5.2.8.2h2.8l-9.6-24.5zm-6.2 15.2 3.7-9.7c.1-.3.2-.7.4-1 .1-.2.1-.5.2-.8.2.7.4 1.3.6 1.8l3.7 9.7h-8.6z" class="st1" style="fill:#fff"/>
        </g>
      </g>
      <g id="g8" style="fill:#fff">
        <path id="path7" d="M176.5 35.8v24.7h-1.8c-.3 0-.5 0-.7-.2-.2-.1-.4-.3-.6-.5l-13.8-18v18.6h-3.2V35.8h1.9c.3 0 .6 0 .7.1.2.1.3.2.5.5l13.8 18V35.8h3.2z" class="st1" style="fill:#fff"/>
      </g>
      <g id="g9" style="fill:#fff">
        <path id="path8" d="M206.4 43.1c-.6-1.5-1.4-2.8-2.5-3.9s-2.4-1.9-3.8-2.5c-1.5-.6-3.2-.9-5-.9h-9.3v24.7h9.3c1.8 0 3.5-.3 5-.9 1.5-.6 2.8-1.4 3.8-2.5 1.1-1.1 1.9-2.4 2.5-3.9.6-1.5.9-3.2.9-5-.1-1.9-.4-3.6-.9-5.1zm-11.3 14.4h-5.7V38.7h5.7c1.3 0 2.5.2 3.5.6 1 .4 1.9 1 2.7 1.8.7.8 1.3 1.8 1.7 2.9.4 1.2.6 2.5.6 4s-.2 2.8-.6 4c-.4 1.2-1 2.2-1.7 2.9-.7.8-1.6 1.4-2.7 1.8-1.1.6-2.2.8-3.5.8z" class="st1" style="fill:#fff"/>
      </g>
      <g id="g10" style="fill:#fff">
        <path id="path9" d="m225.8 35.9-3.6-.1-9.8 24.5-.1.2h2.8c.3 0 .6-.1.8-.3.2-.2.4-.4.4-.6l2.2-5.8h10.7l2.2 5.8c.1.2.2.5.4.6.2.2.5.2.8.2h2.8l-9.6-24.5zm-6.1 15.2 3.7-9.7c.1-.3.2-.7.4-1 .1-.2.1-.5.2-.8.2.7.4 1.3.6 1.8l3.7 9.7h-8.6z" class="st1" style="fill:#fff"/>
      </g>
      <g id="g12" style="fill:#fff">
        <g id="g11" style="fill:#fff">
          <path id="path10" d="M266.2 53.7c0 1-.2 2-.6 2.8-.4.9-1 1.6-1.7 2.2-.7.6-1.5 1.1-2.5 1.5-.9.3-2 .5-3.1.5-1.4 0-2.6-.2-3.5-.6-.9-.4-1.7-.9-2.3-1.5-.6-.6-1.1-1.3-1.4-2-.3-.7-.6-1.5-.8-2.2v-.1l.8-.3c.3-.1.6-.1.9 0 .2.1.3.2.3.4l.1.3c.1.2.2.5.3.8.1.3.3.6.5.9.2.3.4.6.7.9.3.3.6.6 1.1.8.4.2.9.4 1.5.6.6.2 1.2.2 2 .2 1 0 1.9-.2 2.6-.5.7-.3 1.4-.8 1.9-1.3s.9-1.1 1.1-1.7c.2-.6.4-1.3.4-1.8 0-.7-.1-1.4-.3-2-.2-.6-.6-1.1-1.1-1.6-.5-.4-1.2-.8-2.1-1.1-.9-.3-2-.4-3.2-.4h-.2V47h.1c1 0 1.9-.2 2.7-.4.8-.2 1.4-.6 1.9-1s.9-.9 1.2-1.5c.3-.6.4-1.3.4-2 0-.8-.1-1.5-.4-2.2-.3-.6-.6-1.1-1.1-1.5-.5-.4-1-.7-1.6-.9-.6-.2-1.3-.3-2-.3s-1.4.1-2 .3c-.6.2-1.2.5-1.6.9-.5.4-.9.9-1.2 1.4-.3.6-.6 1.2-.7 1.9-.2.8-.8.8-1 .7l-1-.2v-.1c.2-1 .4-2 .9-2.8.4-.8 1-1.5 1.6-2.1.7-.6 1.4-1 2.3-1.3.9-.3 1.8-.4 2.8-.4.9 0 1.8.1 2.6.4.8.3 1.6.7 2.2 1.2.6.5 1.1 1.2 1.5 2 .4.8.6 1.7.6 2.7 0 .8-.1 1.5-.4 2.2-.2.6-.6 1.2-1 1.7s-1 .9-1.5 1.2c-.4.2-.9.4-1.3.6 1.5.4 2.7 1 3.5 2 .6 1.3 1.1 2.6 1.1 4.2z" class="st1" style="fill:#fff"/>
        </g>
      </g>
      <g id="g13" style="fill:#fff">
        <path id="path12" d="M289.8 50c-.4-.9-.9-1.7-1.5-2.3-.7-.6-1.4-1.1-2.3-1.5-.9-.4-1.9-.5-2.9-.5-1.1 0-2.1.2-3.1.6-.6.2-1.1.6-1.6.9.1-.1.1-.2.2-.3.3-.4.6-.8 1-1.3L287 36h-1.7c-.4 0-.8.2-1 .4l-6.6 8.8c-1.1 1.5-1.9 2.8-2.4 4-.5 1.2-.7 2.3-.7 3.3 0 1.2.2 2.4.5 3.4.4 1 .9 1.9 1.6 2.5.7.7 1.5 1.2 2.4 1.6.9.4 2 .5 3.1.5 1.2 0 2.3-.2 3.3-.6 1-.4 1.8-.9 2.6-1.6.7-.7 1.3-1.5 1.7-2.4.4-.9.6-2 .6-3.1 0-.9-.2-1.9-.6-2.8zm-7.5 9.1c-.9 0-1.7-.2-2.4-.4-.7-.3-1.3-.7-1.8-1.3-.5-.5-.9-1.2-1.1-1.9-.3-.7-.4-1.5-.4-2.4 0-.7.1-1.4.4-2.1.3-.7.7-1.3 1.2-1.8s1.2-1 2-1.3c.8-.3 1.6-.5 2.6-.5.9 0 1.7.1 2.4.4.7.3 1.3.7 1.8 1.2s.9 1.1 1.2 1.8c.3.7.4 1.5.4 2.4 0 .9-.1 1.6-.4 2.4-.3.7-.7 1.3-1.2 1.9-.5.5-1.2.9-1.9 1.2-1 .2-1.9.4-2.8.4z" class="st1" style="fill:#fff"/>
      </g>
      <g id="g14" style="fill:#fff">
        <path id="path13" d="M315.2 42.7c-.4-1.5-1.1-2.9-1.9-3.9-.8-1-1.7-1.8-2.8-2.3-1.1-.5-2.2-.8-3.4-.8-1.2 0-2.4.3-3.4.8-1.1.5-2 1.3-2.8 2.3-.8 1-1.4 2.3-1.9 3.9-.4 1.5-.7 3.4-.7 5.5s.2 4 .7 5.5c.4 1.5 1.1 2.9 1.9 3.9.8 1 1.7 1.8 2.8 2.3 1.1.5 2.2.8 3.4.8 1.2 0 2.4-.3 3.4-.8 1.1-.5 2-1.3 2.8-2.3.8-1 1.4-2.3 1.9-3.9.5-1.5.7-3.4.7-5.5s-.2-3.9-.7-5.5zm-10.7 15.7c-.8-.4-1.5-1-2.2-1.9-.6-.9-1.1-2-1.5-3.3-.4-1.4-.6-3-.6-5 0-1.9.2-3.6.6-5 .4-1.4.9-2.5 1.5-3.3.6-.9 1.3-1.5 2.2-1.9.8-.4 1.7-.6 2.6-.6s1.8.2 2.6.6c.8.4 1.5 1 2.2 1.9.6.9 1.1 2 1.5 3.3.4 1.4.6 3 .6 5 0 1.9-.2 3.6-.6 5-.4 1.3-.9 2.5-1.5 3.3-.6.9-1.3 1.5-2.2 1.9-1.7.8-3.6.8-5.2 0z" class="st1" style="fill:#fff"/>
      </g>
    </g>
  </g>
  <g id="g24" style="fill:#fff">
    <path id="path16" d="M151.7 20.6V9.3h5.3c1.3 0 2.2.3 2.9.9.7.6 1 1.5 1 2.5 0 1.1-.3 1.9-1 2.5-.7.6-1.6.9-2.9.9h-2.8v4.4h-2.5zm2.5-6.3h2.4c.6 0 1-.1 1.3-.4.3-.3.4-.6.4-1.1s-.1-.8-.4-1.1c-.3-.3-.7-.4-1.3-.4h-2.4v3z" class="st1" style="fill:#fff"/>
    <path id="path17" d="M162.8 14.9c0-1.2.2-2.2.7-3.1s1.1-1.5 1.9-2c.8-.5 1.8-.7 3-.7 1.1 0 2.1.2 3 .7.8.5 1.5 1.2 1.9 2 .5.9.7 1.9.7 3 0 1.2-.2 2.2-.7 3.1-.5.9-1.1 1.5-1.9 2-.8.5-1.8.7-3 .7-1.1 0-2.1-.2-2.9-.7-.8-.5-1.5-1.2-1.9-2-.6-.8-.8-1.8-.8-3zm2.6 0c0 1.2.2 2.1.7 2.7.5.7 1.2 1 2.2 1 1 0 1.7-.3 2.2-1 .5-.7.8-1.6.8-2.7 0-1.2-.2-2.1-.7-2.7s-1.2-1-2.2-1c-1 0-1.7.3-2.2 1s-.8 1.6-.8 2.7z" class="st1" style="fill:#fff"/>
    <path id="path18" d="m179.4 20.6-4-11.3h2.6l2.9 8.7h-.7l3.1-8.7h1.8L188 18h-.6l3-8.7h2.4l-4 11.3h-2l-2.8-8h.4l-2.9 8h-2.1z" class="st1" style="fill:#fff"/>
    <path id="path19" d="M194.9 20.6V9.3h7.8v1.9h-5.5v2.6h5.1v1.9h-5.1v2.8h5.5v1.9h-7.8z" class="st1" style="fill:#fff"/>
    <path id="path20" d="M205.1 20.6V9.3h5.1c1.3 0 2.2.3 2.9.9.7.6 1 1.4 1 2.5 0 .7-.2 1.3-.5 1.8s-.8.9-1.3 1.2c-.6.3-1.3.4-2.1.4l.2-.4h.7c.5 0 .9.1 1.2.4.4.2.7.6.9 1.1l1.7 3.4h-2.7l-1.7-3.6c-.1-.3-.3-.5-.6-.6-.3-.1-.6-.2-.9-.2h-1.3v4.4h-2.6zm2.5-6.2h2.2c.6 0 1.1-.1 1.5-.4.3-.3.5-.7.5-1.2s-.2-.9-.5-1.2c-.3-.3-.8-.4-1.5-.4h-2.2v3.2z" class="st1" style="fill:#fff"/>
    <path id="path21" d="M217.1 20.6V9.3h7.8v1.9h-5.5v2.6h5.1v1.9h-5.1v2.8h5.5v1.9h-7.8z" class="st1" style="fill:#fff"/>
    <path id="path22" d="M227.3 20.6V9.3h4.3c1.3 0 2.4.2 3.3.7.9.4 1.6 1.1 2.1 1.9.5.8.7 1.8.7 3s-.2 2.2-.7 3c-.5.8-1.1 1.5-2.1 1.9-.9.5-2 .7-3.3.7h-4.3zm2.5-2.1h1.7c1.3 0 2.2-.3 2.8-.9.6-.6.9-1.5.9-2.7 0-1.2-.3-2.1-.9-2.7-.6-.6-1.5-.9-2.8-.9h-1.7v7.2z" class="st1" style="fill:#fff"/>
    <path id="path23" d="M245.5 20.6V9.3h5.2c1.2 0 2.2.3 2.9.8.7.5 1 1.2 1 2.1 0 .7-.2 1.2-.6 1.7-.4.5-.9.8-1.6.9v-.3c.8.1 1.4.4 1.9.9.4.5.7 1.1.7 1.8 0 1-.4 1.8-1.1 2.3-.7.6-1.7.8-2.9.8h-5.5zm2.4-6.7h2.4c.7 0 1.1-.1 1.4-.4.3-.2.5-.6.5-1.1 0-.5-.2-.8-.5-1-.3-.2-.8-.4-1.4-.4h-2.4v2.9zm0 4.8h2.7c.6 0 1.1-.1 1.4-.4.3-.2.5-.6.5-1.1 0-.5-.2-.9-.5-1.1-.3-.2-.8-.3-1.4-.3h-2.7v2.9z" class="st1" style="fill:#fff"/>
    <path id="path24" d="M259.8 20.6v-5.4l.5 1.4-4.9-7.3h2.9l3.1 4.8h-.5l3.1-4.8h2.8l-4.9 7.3.5-1.4v5.4h-2.6z" class="st1" style="fill:#fff"/>
  </g>
</svg>
