<svg id="Layer_1" data-name="Layer 1" xmlns="http://www.w3.org/2000/svg" viewBox="0 0 299.97 305"><path d="M298.26,256.51c.09-5.37-3.68-9.17-8.5-9.26-.22,0-.43,0-.65,0l-.3,0c-.22,0-.43,0-.64,0l-.3,0c-.22,0-.43,0-.64,0l-.31,0c-.21,0-.43,0-.64,0l-.3,0c-4.92-.1-8.63,3.8-8.76,9.41l0,.44c0,.17,0,.34,0,.52l0,.44c0,.17,0,.34,0,.52l0,.44c0,.17,0,.34,0,.52l0,.44c0,.17,0,.34,0,.52.17,2,.28,4.07.33,6.1-.41,17.64-6.74,33.6-27.56,33.69h-10.3c-11.92,0-23.84.07-35.76.08-9.11,0-18.23-.07-27.35-.27V38.89l74.75-.24c43.12,4,13.29,52.07,34.54,52.94a5.49,5.49,0,0,0,.58,0c.12,0,.24,0,.36,0a5.49,5.49,0,0,0,.58,0c.13,0,.24,0,.37,0a5.63,5.63,0,0,0,.58,0c.12,0,.24,0,.36,0a5.49,5.49,0,0,0,.58,0c.12,0,.24,0,.37,0,5.06,0,8.58-3.77,8.66-9.46a72.06,72.06,0,0,0,.63-9.37V69.89c.45-27.45-14.85-53.32-45.17-52.83Q210.52,17,167.28,17h-2.83q-43.23,0-86.44.05c-26,0-44.81,19.1-45,45.48q0,52.69,0,105.39v2.87l0,105.54c0,17.11,7.08,30.38,21.47,39.42,7.39,4.66,15.61,6.25,24.2,6.25h87.93q42.9,0,85.79,0c32.92.17,46.52-24.85,46.28-53.16v-2.88A91,91,0,0,0,298.26,256.51Zm-170.8,43.85c-12,0-23.95-.09-35.94-.09H88.69l-6.57,0c-17.31-.17-27.92-11-27.92-28.74q0-101.8,0-203.61c0-18.51,10.73-29.39,28.94-29.42h71.58v261.6C145.63,300.29,136.55,300.35,127.46,300.36Z" transform="translate(-33.03 -17)"/><path d="M314.66,158.42c-4.75-.06-9.88.42-14.14.56a18.84,18.84,0,0,1-2-.18,20.1,20.1,0,0,1-.38-3.34c.13-4.15.58-8.9.55-13.31q0-.48,0-1t0-1q0-.48,0-1c.08-8.23-1.28-15.53-9.11-16l-.48,0-.47,0-.47,0-.47,0-.48,0-.47,0-.47,0-.47,0c-7.69.4-9.09,7.79-9,16.09v2.88c0,4.72.48,9.81.63,14.13a20.09,20.09,0,0,1-.23,2.36A17.43,17.43,0,0,1,275,159c-4.16-.14-9.12-.62-13.75-.6h-2.83c-8.67-.08-16.44,1.39-16,9.82,0,.31,0,.63,0,1s0,.63,0,1,0,.63,0,1a13.25,13.25,0,0,0,.1,2.23c1.39,6.16,8.05,7.37,15.49,7.33h2.84c4.69,0,9.77-.48,14.1-.63a21.52,21.52,0,0,1,2.28.22c.1.69.16,1.46.2,2.3-.13,4.2-.55,9.19-.53,13.84q0,.48,0,1t0,1q0,.48,0,1c-.06,7.09.79,13.55,5.13,15.41a12.34,12.34,0,0,0,4.83.82,7.37,7.37,0,0,0,.94,0,7.37,7.37,0,0,0,.94,0,7.52,7.52,0,0,0,.95,0c7.78.38,9-9,8.95-18.55v-2.88c0-4.31-.26-8.71-.36-12.36,0-.51,0-1,.1-1.45a23.51,23.51,0,0,1,2.39-.22c4.22.14,9.13.61,13.68.59h2.83c6.84.06,13-.84,15.07-5.44a14.51,14.51,0,0,0,.68-4.91,7.68,7.68,0,0,0,0-1,7.68,7.68,0,0,0,0-1,7.68,7.68,0,0,0,0-1c.27-7.55-7.13-9-15.49-9" transform="translate(-33.03 -17)"/></svg>