<?xml version="1.0" encoding="utf-8"?>
<!-- Generator: Adobe Illustrator 26.0.1, SVG Export Plug-In . SVG Version: 6.00 Build 0)  -->
<svg version="1.1" id="Layer_1" xmlns="http://www.w3.org/2000/svg" xmlns:xlink="http://www.w3.org/1999/xlink" x="0px" y="0px"
	 viewBox="0 0 256 256" style="enable-background:new 0 0 256 256;" xml:space="preserve">
<g>
	<path d="M216.9,2.1h-86.7c-6.4,0-11.6,5.9-11.6,13.1v225.6c0,7.2,5.2,13.1,11.6,13.1h86.7c6.4,0,11.6-5.9,11.6-13.1v-70.5
		c-2.4,2-5,3.8-7.7,5.3v65.2c0,2.4-1.7,4.4-3.9,4.4h-86.7c-2.1,0-3.9-2-3.9-4.4V15.2c0-2.4,1.7-4.4,3.9-4.4h86.7
		c2.1,0,3.9,2,3.9,4.4v65.2c2.7,1.5,5.3,3.3,7.7,5.3V15.2C228.5,8,223.3,2.1,216.9,2.1z"/>
	<path d="M99.2,2.1H12.5C6.1,2.1,0.9,8,0.9,15.2v225.6c0,7.2,5.2,13.1,11.6,13.1h86.7c6.4,0,11.6-5.9,11.6-13.1V15.2
		C110.8,8,105.6,2.1,99.2,2.1z M103.1,240.8c0,2.4-1.7,4.4-3.9,4.4H12.5c-2.1,0-3.9-2-3.9-4.4V15.2c0-2.4,1.7-4.4,3.9-4.4h86.7
		c2.1,0,3.9,2,3.9,4.4V240.8z"/>
</g>
<g>
	<path d="M228.5,81.2c-2.5-1.5-5-2.8-7.7-3.8c-5.1-2-10.5-3.3-16.2-3.7h-0.1c-1.3-0.1-2.6-0.1-3.9-0.1c-1.3,0-2.5,0-3.8,0.1
		c0,0-0.1,0-0.1,0c-28.2,2-50.6,25.6-50.6,54.3s22.4,52.3,50.6,54.3c0,0,0.1,0,0.1,0c1.2,0.1,2.5,0.1,3.8,0.1c1.3,0,2.6,0,3.9-0.1
		h0.1c5.7-0.4,11.1-1.7,16.2-3.7c2.7-1.1,5.3-2.4,7.7-3.8c15.9-9.5,26.6-26.9,26.6-46.8S244.4,90.7,228.5,81.2z M228.5,165.5
		c-2.4,1.8-5,3.4-7.7,4.7c-5,2.4-10.4,3.9-16.2,4.4c0,0-0.1,0-0.1,0c-1.3,0.1-2.6,0.2-3.9,0.2c-1.3,0-2.5-0.1-3.8-0.2
		c0,0-0.1,0-0.1,0c-23.9-2-42.8-22.1-42.8-46.5s18.9-44.6,42.8-46.5c0,0,0.1,0,0.1,0c1.2-0.1,2.5-0.2,3.8-0.2c1.3,0,2.6,0.1,3.9,0.2
		c0,0,0.1,0,0.1,0c5.7,0.5,11.2,2,16.2,4.4c2.7,1.3,5.3,2.9,7.7,4.7c11.4,8.5,18.9,22.1,18.9,37.5
		C247.4,143.3,240,156.9,228.5,165.5z"/>
</g>
<g>
	<path d="M205.9,101.4v21.9h21.9c2.7,0,4.8,2.2,4.8,4.8v0c0,2.7-2.2,4.8-4.8,4.8h-21.9v21.8c0,2.9-2.4,5.3-5.3,5.3h0
		c-2.9,0-5.3-2.4-5.3-5.3V133h-21.8c-2.7,0-4.8-2.2-4.8-4.8v0c0-2.7,2.2-4.8,4.8-4.8h21.8v-21.9c0-2.9,2.4-5.3,5.3-5.3h0
		C203.5,96,205.9,98.4,205.9,101.4z"/>
</g>
</svg>
