<?xml version="1.0" encoding="UTF-8" standalone="no"?>
<!-- Created with Inkscape (http://www.inkscape.org/) -->

<svg
   xmlns:dc="http://purl.org/dc/elements/1.1/"
   xmlns:cc="http://creativecommons.org/ns#"
   xmlns:rdf="http://www.w3.org/1999/02/22-rdf-syntax-ns#"
   xmlns:svg="http://www.w3.org/2000/svg"
   xmlns="http://www.w3.org/2000/svg"
   xmlns:sodipodi="http://sodipodi.sourceforge.net/DTD/sodipodi-0.dtd"
   xmlns:inkscape="http://www.inkscape.org/namespaces/inkscape"
   width="106.65402mm"
   height="103.87345mm"
   viewBox="0 0 106.65402 103.87345"
   version="1.1"
   id="svg8"
   sodipodi:docname="Add column.svg"
   inkscape:version="0.92.4 (5da689c313, 2019-01-14)">
  <defs
     id="defs2" />
  <sodipodi:namedview
     id="base"
     pagecolor="#ffffff"
     bordercolor="#666666"
     borderopacity="1.0"
     inkscape:pageopacity="0.0"
     inkscape:pageshadow="2"
     inkscape:zoom="0.7"
     inkscape:cx="-147.72124"
     inkscape:cy="-184.09397"
     inkscape:document-units="mm"
     inkscape:current-layer="g3726"
     showgrid="false"
     fit-margin-top="10"
     fit-margin-bottom="10"
     fit-margin-left="10"
     fit-margin-right="10"
     inkscape:window-width="1920"
     inkscape:window-height="1017"
     inkscape:window-x="1912"
     inkscape:window-y="-8"
     inkscape:window-maximized="1" />
  <metadata
     id="metadata5">
    <rdf:RDF>
      <cc:Work
         rdf:about="">
        <dc:format>image/svg+xml</dc:format>
        <dc:type
           rdf:resource="http://purl.org/dc/dcmitype/StillImage" />
        <dc:title></dc:title>
      </cc:Work>
    </rdf:RDF>
  </metadata>
  <g
     inkscape:label="Layer 1"
     inkscape:groupmode="layer"
     id="layer1"
     transform="translate(-61.168115,-86.313433)">
    <g
       id="g3726"
       transform="matrix(0.26458333,0,0,0.26458333,72.760907,97.900933)"
       style="stroke-width:12;stroke-miterlimit:4;stroke-dasharray:none">
      <path
         id="path3713"
         d="m 298.77886,260.60343 c 0.0963,-5.74711 -3.93842,-9.81397 -9.09691,-9.91029 h -0.69565 -0.32107 -0.68494 -0.32107 -0.68494 -0.33177 -0.68496 -0.32106 c -5.2655,-0.10702 -9.23604,4.06686 -9.37517,10.07082 v 0.4709 0.55652 0.4709 0.55651 0.47091 0.55651 0.4709 0.55653 c 0.18193,2.14043 0.29967,4.35581 0.35317,6.52837 -0.4388,18.87878 -7.21332,20.97643 -29.49541,21.07275 h -11.02334 c -12.75709,0 -25.51417,0.0749 -38.27126,0.0856 -9.74977,0 -19.51023,-0.0749 -29.27067,-0.28896 V 12.717751 l 79.99937,-0.256853 c 46.14813,4.280903 14.22329,40.743493 36.9656,41.674589 0.20676,0.01094 0.41396,0.01094 0.62072,0 h 0.38529 c 0.20676,0.01094 0.41396,0.01094 0.62072,0 h 0.39598 c 0.20677,0.01071 0.41396,0.01071 0.62073,0 h 0.38529 c 0.20677,0.01094 0.41396,0.01094 0.62073,0 h 0.39599 c 5.41534,0 9.18253,-4.034751 9.26815,-10.124335 0.44255,-3.324455 0.66778,-6.674239 0.67425,-10.028014 v -3.071549 c 0.48159,-29.3776953 -15.89286,-42.081274 -48.3421,-41.556864 -30.85818,-0.04281 -61.71279,-0.06422 -92.56382,-0.06422 h -3.02874 c -30.84391,0 -61.680675,0.01784 -92.510314,0.05351 -27.825867,0 -47.956813,20.4413106 -48.160156,48.673864 v 112.791091 3.07154 112.95163 c 0,18.31156 7.577198,32.51344 22.977746,42.18829 7.908968,4.98725 16.706224,6.6889 25.899462,6.6889 h 94.104942 91.81467 c 35.23182,0.18194 49.7869,-11.61194 49.53004,-41.91003 v -3.08225 c 0.0255,-3.37672 -0.12443,-6.75249 -0.4495,-10.11363 z m -182.79454,31.94623 c -12.84271,0 -25.631909,-0.0963 -38.463915,-0.0963 H 74.491667 67.460284 C 48.934677,292.27141 37.579583,280.68086 37.579583,261.69506 V 43.786405 c 0,-19.809878 11.483521,-31.453934 30.972331,-31.486041 H 145.15866 V 292.27141 c -9.72834,0.20335 -19.446,0.26756 -29.17434,0.27825 z"
         inkscape:connector-curvature="0"
         style="stroke:#000000;stroke-width:12.84270763;stroke-miterlimit:4;stroke-dasharray:none;stroke-opacity:1"
         sodipodi:nodetypes="cccccccccccccccccccccsccccccccccccsccccssccccscsccccccsccsscccc" />
      <path
         id="path3715"
         d="m 333.42977,138.66038 c -7.05849,-0.0891 -18.96134,0.47481 -25.29169,0.68253 -0.99471,-0.0362 -1.98678,-0.12537 -2.97199,-0.26707 -0.32648,-1.63328 -0.51537,-3.29099 -0.56468,-4.95575 0.19318,-6.15758 0.86187,-13.20544 0.8173,-19.7488 v -1.48375 -1.48376 -1.48375 c 0.11886,-12.211321 -1.9021,-23.042751 -13.53744,-23.740116 h -0.71327 -0.69842 -0.69844 -0.69842 -0.71328 -0.69842 -0.69842 -0.69842 c -11.42733,0.593502 -13.50772,11.558462 -13.37398,23.873646 v 4.27321 c 0,5.86303 0.49993,12.11086 0.79348,17.75095 0.057,1.09694 0.10639,2.17087 0.14269,3.21453 -0.0448,1.17295 -0.15891,2.34221 -0.3418,3.50168 -1.07621,0.26249 -2.16819,0.45578 -3.2692,0.57867 -6.18175,-0.20774 -13.55231,-0.91994 -20.43246,-0.89026 h -4.20538 c -12.88361,-0.1187 -24.42981,2.06242 -23.77599,14.57049 v 1.48375 1.48376 1.48375 c -0.0437,1.10514 0.006,2.21199 0.14862,3.30879 2.06554,9.13995 11.96228,10.93529 23.01811,10.87593 h 4.22024 c 6.96932,0 14.5182,-0.7122 20.95257,-0.93476 1.13436,0.0487 2.26532,0.15764 3.38807,0.32641 0.1486,1.0238 0.23776,2.1663 0.29722,3.41265 -0.1932,6.23177 -0.81731,13.63572 -0.7876,20.5352 v 1.48375 1.48376 1.48375 c -0.0892,10.51985 1.17395,20.10491 7.62318,22.86469 2.28696,0.88045 4.72752,1.29416 7.17736,1.21667 0.46516,0.0296 0.93171,0.0296 1.39684,0 0.46515,0.0296 0.9317,0.0296 1.39684,0 0.4701,0.0296 0.94161,0.0296 1.41171,0 11.56105,0.56385 13.37397,-13.3538 13.29968,-27.52367 v -4.27322 c 0,-6.39501 -0.38638,-12.92353 -0.53496,-18.33923 0,-0.75672 0,-1.48376 0.14858,-2.15145 1.17751,-0.16913 2.3629,-0.27808 3.55154,-0.32643 6.27092,0.20773 13.56716,0.90511 20.32846,0.87542 h 4.20538 c 10.16424,0.0891 19.31797,-1.24635 22.39399,-8.07163 0.75284,-2.35259 1.09464,-4.81694 1.01048,-7.28524 0.0322,-0.49409 0.0322,-0.98971 0,-1.48376 0.0322,-0.49408 0.0322,-0.98971 0,-1.48376 0.0322,-0.49407 0.0322,-0.9897 0,-1.48375 0.40122,-11.20237 -10.59517,-13.35383 -23.0181,-13.35383"
         inkscape:connector-curvature="0"
         style="stroke:#000000;stroke-width:5.03822374;stroke-miterlimit:4;stroke-dasharray:none;stroke-opacity:1"
         sodipodi:nodetypes="ccccccccccccccccccsscccccccccccscccccccccccccsccccccccccc" />
    </g>
  </g>
</svg>
