<svg xmlns="http://www.w3.org/2000/svg" viewBox="0 0 256 256" xml:space="preserve">
  <path d="M230.2 2.1h-86.7c-6.4 0-11.6 5.9-11.6 13.1v225.6c0 7.2 5.2 13.1 11.6 13.1h86.7c6.4 0 11.6-5.9 11.6-13.1V15.2c0-7.2-5.2-13.1-11.6-13.1zm3.9 238.7c0 2.4-1.7 4.4-3.9 4.4h-86.7c-2.1 0-3.9-2-3.9-4.4V15.2c0-2.4 1.7-4.4 3.9-4.4h86.7c2.1 0 3.9 2 3.9 4.4v225.6zM112.5 2.1H25.8c-6.4 0-11.6 5.9-11.6 13.1v225.6c0 7.2 5.2 13.1 11.6 13.1h86.7c6.4 0 11.6-5.9 11.6-13.1V15.2c0-7.2-5.2-13.1-11.6-13.1zm3.9 238.7c0 2.4-1.7 4.4-3.9 4.4H25.8c-2.1 0-3.9-2-3.9-4.4V15.2c0-2.4 1.7-4.4 3.9-4.4h86.7c2.1 0 3.9 2 3.9 4.4v225.6z"/>
</svg>