<?xml version="1.0" encoding="utf-8"?>
<!-- Generator: Adobe Illustrator 26.0.1, SVG Export Plug-In . SVG Version: 6.00 Build 0)  -->
<svg version="1.1" id="Layer_1" xmlns="http://www.w3.org/2000/svg" xmlns:xlink="http://www.w3.org/1999/xlink" x="0px" y="0px"
	 viewBox="0 0 256 256" style="enable-background:new 0 0 256 256;" xml:space="preserve">
<g>
	<path d="M230.2,2.1h-86.7c-6.4,0-11.6,5.9-11.6,13.1v225.6c0,7.2,5.2,13.1,11.6,13.1h86.7c6.4,0,11.6-5.9,11.6-13.1V15.2
		C241.8,8,236.6,2.1,230.2,2.1z M234.1,240.8c0,2.4-1.7,4.4-3.9,4.4h-86.7c-2.1,0-3.9-2-3.9-4.4V15.2c0-2.4,1.7-4.4,3.9-4.4h86.7
		c2.1,0,3.9,2,3.9,4.4V240.8z"/>
	<path d="M112.5,2.1H25.8c-6.4,0-11.6,5.9-11.6,13.1v225.6c0,7.2,5.2,13.1,11.6,13.1h86.7c6.4,0,11.6-5.9,11.6-13.1V15.2
		C124.1,8,118.9,2.1,112.5,2.1z M116.4,240.8c0,2.4-1.7,4.4-3.9,4.4H25.8c-2.1,0-3.9-2-3.9-4.4V15.2c0-2.4,1.7-4.4,3.9-4.4h86.7
		c2.1,0,3.9,2,3.9,4.4V240.8z"/>
</g>
</svg>
