<svg xmlns="http://www.w3.org/2000/svg" width="403.102" height="392.593" viewBox="0 0 106.654 103.873"><g stroke-width="12" stroke="#000"><path d="M90.645 80.539c.025-1.52-1.042-2.597-2.407-2.622h-1.071c-1.393-.029-2.443 1.076-2.48 2.664v1.088c.048.566.08 1.152.093 1.727-.116 4.995-1.908 5.55-7.804 5.575H74.06c-3.376 0-6.75.02-10.126.023-2.58 0-5.162-.02-7.745-.076V14.952l21.167-.068c12.21 1.133 3.763 10.78 9.78 11.027.055.003.11.003.165 0h.101c.055.003.11.003.165 0h.104c.055.003.11.003.165 0h.102c.054.003.11.003.164 0h.105c1.432 0 2.43-1.068 2.452-2.679.117-.88.177-1.766.178-2.653v-.813c.128-7.773-4.205-11.134-12.79-10.995-8.165-.011-16.328-.017-24.491-.017h-.801c-8.161 0-16.32.005-24.477.014-7.362 0-12.689 5.409-12.743 12.878v60.541c0 4.845 2.005 8.602 6.08 11.162 2.093 1.32 4.42 1.77 6.853 1.77h49.191c9.322.048 13.173-3.072 13.105-11.089v-.815a25.775 25.775 0 0 0-.12-2.676zM42.28 88.99c-3.398 0-6.781-.025-10.177-.025h-2.661c-4.902-.048-7.906-3.115-7.906-8.138V23.173c0-5.242 3.038-8.323 8.194-8.331H50v74.076c-2.575.053-5.146.07-7.72.073z" stroke-width="3.3980009399999997"/><path d="M99.813 48.275c-1.868-.024-5.017.125-6.692.18a7.419 7.419 0 0 1-.786-.07 7.88 7.88 0 0 1-.15-1.312c.051-1.629.228-3.493.216-5.225v-1.177c.032-3.231-.503-6.097-3.581-6.282H87.334c-3.024.157-3.574 3.058-3.539 6.317v1.13c0 1.552.132 3.205.21 4.697.015.29.028.574.038.85-.012.31-.042.62-.09.927-.285.07-.574.12-.866.153-1.635-.055-3.585-.243-5.406-.235H76.57c-3.41-.032-6.464.545-6.291 3.855v1.177c-.012.293.001.586.04.876.546 2.418 3.164 2.893 6.09 2.877h1.116c1.844 0 3.841-.188 5.544-.247.3.013.599.042.896.087.04.27.063.573.079.902-.051 1.65-.217 3.608-.209 5.434v1.177c-.023 2.784.31 5.32 2.017 6.05.605.233 1.251.342 1.9.322.122.008.246.008.369 0 .123.008.246.008.37 0 .124.008.249.008.373 0 3.059.15 3.538-3.533 3.519-7.282v-1.13c0-1.693-.102-3.42-.142-4.853 0-.2 0-.393.04-.57.311-.044.625-.073.94-.086 1.658.055 3.589.24 5.378.232h1.113c2.689.023 5.11-.33 5.925-2.136.199-.622.29-1.274.267-1.927.008-.131.008-.262 0-.393.008-.13.008-.262 0-.392.008-.131.008-.262 0-.393.106-2.964-2.803-3.533-6.09-3.533" stroke-width="1.33295404"/></g></svg>