<svg xmlns="http://www.w3.org/2000/svg" width="403.102" height="392.593" viewBox="0 0 106.654 103.873"><g stroke-width="12" stroke="#000"><path d="M88.647 78.662c.024-1.42-.973-2.426-2.249-2.45h-1c-1.301-.026-2.283 1.005-2.317 2.49v1.016c.045.529.074 1.077.087 1.614-.109 4.667-1.783 5.185-7.292 5.21h-2.725c-3.154 0-6.308.018-9.462.02-2.41 0-4.823-.018-7.236-.071V17.379l19.777-.063c11.41 1.058 3.517 10.072 9.14 10.303.05.002.102.002.153 0h.095c.051.002.102.002.153 0h.098c.051.002.103.002.154 0h.095c.051.002.102.002.153 0h.098c1.34 0 2.27-.998 2.292-2.503.109-.822.165-1.65.166-2.48v-.759c.12-7.263-3.929-10.403-11.95-10.274-7.63-.01-15.258-.016-22.885-.016h-.749c-7.625 0-15.248.005-22.87.014-6.88 0-11.856 5.053-11.906 12.033v56.568c0 4.527 1.873 8.038 5.68 10.43 1.956 1.233 4.13 1.653 6.403 1.653h45.964c8.71.045 12.308-2.87 12.245-10.36v-.763c.006-.834-.031-1.669-.112-2.5zm-45.19 7.898c-3.175 0-6.337-.024-9.51-.024H31.46c-4.58-.045-7.387-2.91-7.387-7.604V25.06c0-4.897 2.84-7.776 7.657-7.784h18.94v69.215c-2.406.05-4.808.066-7.213.069z" stroke-width="3.1749599999999996"/><path d="M97.214 48.515c-1.745-.022-4.688.117-6.253.169a6.937 6.937 0 0 1-.735-.066 7.363 7.363 0 0 1-.14-1.225c.049-1.523.214-3.265.203-4.883v-1.1c.03-3.02-.47-5.697-3.347-5.87h-1.389c-2.825.147-3.339 2.858-3.306 5.903v1.056c0 1.45.124 2.994.196 4.389.014.27.027.536.036.794-.011.29-.04.58-.085.866a6.412 6.412 0 0 1-.808.143c-1.528-.051-3.35-.227-5.051-.22h-1.04c-3.185-.03-6.04.51-5.878 3.602v1.101c-.01.273.001.546.037.818.51 2.26 2.957 2.703 5.69 2.688h1.044c1.723 0 3.589-.176 5.18-.23.28.011.56.038.837.08.037.253.059.536.074.844-.048 1.54-.202 3.37-.195 5.076v1.101c-.022 2.6.29 4.97 1.884 5.653a4.54 4.54 0 0 0 1.775.3c.115.008.23.008.345 0 .115.008.23.008.346 0 .116.008.232.008.349 0 2.858.14 3.306-3.301 3.288-6.804v-1.057c0-1.58-.096-3.195-.133-4.533 0-.188 0-.367.037-.532.291-.042.584-.07.878-.081 1.55.051 3.354.224 5.026.216h1.04c2.512.022 4.775-.308 5.536-1.995.186-.582.27-1.191.25-1.801a2.819 2.819 0 0 0 0-.367 2.819 2.819 0 0 0 0-.367 2.819 2.819 0 0 0 0-.367c.099-2.77-2.62-3.301-5.691-3.301" stroke-width="1.24564264"/></g></svg>