<svg xmlns="http://www.w3.org/2000/svg" version="1.1" id="Layer_1" x="0" y="0" xml:space="preserve" viewBox="240.1 0.5 53.1 51.9"><style type="text/css" id="style2">.st0{fill:#fff}</style><g id="g12"><path class="st0" d="M293.2 32.3h-20.4v20.1c-3.1-.7-5.4-3.4-5.4-6.6V34c0-3.7 3.1-6.8 7-6.8h12.1c3.2 0 6 2.2 6.7 5.1z" id="path4"/><path class="st0" d="M260.7 52.4V32.5h-20.6c.7-3 3.5-5.3 6.8-5.3H259c3.8 0 7 3.1 7 6.8v11.8c-.1 3.1-2.3 5.8-5.3 6.6z" id="path6"/><path class="st0" d="M293.2 20.6h-20.4V.5c-3.1.7-5.4 3.4-5.4 6.6v11.8c0 3.7 3.1 6.8 7 6.8h12.1c3.2 0 6-2.1 6.7-5.1z" id="path8"/><path class="st0" d="M260.7.5v19.9h-20.6c.7 3 3.5 5.3 6.8 5.3H259c3.8 0 7-3.1 7-6.8V7.1c-.1-3.1-2.3-5.8-5.3-6.6z" id="path10"/></g></svg>